<?xml version="1.0" encoding="UTF-8" standalone="no"?><!DOCTYPE svg PUBLIC "-//W3C//DTD SVG 1.1//EN" "http://www.w3.org/Graphics/SVG/1.1/DTD/svg11.dtd"><svg width="100%" height="100%" viewBox="0 0 1500 2500" version="1.1" xmlns="http://www.w3.org/2000/svg" xmlns:xlink="http://www.w3.org/1999/xlink" xml:space="preserve" xmlns:serif="http://www.serif.com/" style="fill-rule:evenodd;clip-rule:evenodd;stroke-linejoin:round;stroke-miterlimit:2;"><g id="Layer-1" serif:id="Layer 1"><rect x="0" y="0" width="1500" height="2500" style="fill:url(#_Radial1);"/><path d="M502.564,583.339l-0.003,1238.1l82.488,47.616l-0.01,-1238.1l-82.475,-47.614Z" style="fill:#b3b3b3;fill-rule:nonzero;"/><path d="M585.034,535.72l-82.469,47.624l82.473,47.609l82.478,-47.619l-82.482,-47.614Z" style="fill:#e6e6e6;fill-rule:nonzero;"/><path d="M997.43,773.814l0,1238.08l-82.47,47.624l-0.008,-1238.09l82.478,-47.617Z" style="fill:#ccc;fill-rule:nonzero;"/><path d="M914.947,726.185l-82.472,47.627l82.477,47.62l82.473,-47.627l-82.478,-47.62Z" style="fill:#e6e6e6;fill-rule:nonzero;"/><g opacity="0.15"><path d="M914.958,1964.28l-82.48,-47.618l0.001,95.237l82.479,-47.619Z" style="fill:#0ff;fill-rule:nonzero;"/></g><path d="M914.956,2059.52l-82.479,-47.619l82.478,-47.618l0.001,95.237Z" style="fill:#4d4d4d;fill-rule:nonzero;"/><path d="M668.543,678.571l-82.479,-47.619l82.477,-47.618l0.002,95.237Z" style="fill:#808080;fill-rule:nonzero;"/><path d="M914.956,1678.57l-82.479,-47.618l82.478,-47.618l0.001,95.236Z" style="fill:#4d4d4d;fill-rule:nonzero;"/><path d="M914.952,1297.62l-82.479,-47.618l82.477,-47.618l0.002,95.236Z" style="fill:#4d4d4d;fill-rule:nonzero;"/><path d="M914.957,916.719l-82.479,-47.619l82.474,-47.668l0.005,95.287Z" style="fill:#4d4d4d;fill-rule:nonzero;"/><path d="M840.722,1635.72l0,-85.707l65.991,38.097l0,85.711l-65.991,-38.101Zm65.991,-428.57l0,85.712l-65.991,-38.103l0,-85.706l65.991,38.097Zm0,-380.951l0,85.718l-65.991,-38.102l0,-85.712l65.991,38.096Zm8.247,1233.33l-0.008,-1238.09l-82.476,-47.62l0.005,1238.09l8.241,4.758l0,-85.711l65.991,38.098l0,85.713l8.247,4.761Z" style="fill:#b3b3b3;fill-rule:nonzero;"/><g opacity="0.3"><clipPath id="_clip2"><path d="M667.522,1821.42l247.43,0l0,-238.084l-247.43,0l0,238.084Z" clip-rule="nonzero"/></clipPath><g clip-path="url(#_clip2)"><path d="M667.522,1821.43l247.43,-142.855l0,-95.229l-247.431,142.846l0.001,95.238Z" style="fill:#0ff;fill-rule:nonzero;"/></g></g><path d="M585.052,1869.05l82.483,-47.627l-82.478,-47.614l-0.005,95.241Z" style="fill:#4d4d4d;fill-rule:nonzero;"/><path d="M585.053,1488.13l82.483,-47.627l-82.479,-47.614l-0.004,95.241Z" style="fill:#4d4d4d;fill-rule:nonzero;"/><path d="M585.053,1107.14l82.483,-47.627l-82.479,-47.614l-0.004,95.241Z" style="fill:#4d4d4d;fill-rule:nonzero;"/><path d="M585.04,726.195l82.483,-47.627l-82.478,-47.614l-0.005,95.241Z" style="fill:#4d4d4d;fill-rule:nonzero;"/><path d="M593.298,1397.62l65.992,-38.097l-0.001,85.707l-65.991,38.102l0,-85.712Zm0,-380.95l65.992,-38.097l-0.001,85.702l-65.991,38.101l0,-85.706Zm0,-380.946l65.992,-38.098l-0.001,85.709l-65.991,38.091l0,-85.702Zm65.992,1104.76l-0.001,85.7l8.234,-4.754l-0.006,-1238.09l-82.479,47.619l0.011,1238.1l8.249,-4.763l0,-85.711l65.992,-38.097Z" style="fill:#ccc;fill-rule:nonzero;"/><g opacity="0.15"><path d="M667.521,1630.95l0,95.235l247.431,-142.845l-82.468,-47.631l-164.963,95.241Z" style="fill:#0ff;fill-rule:nonzero;"/></g><g opacity="0.3"><clipPath id="_clip3"><path d="M667.52,1440.48l247.432,0l0,-238.1l-247.432,0l0,238.1Z" clip-rule="nonzero"/></clipPath><g clip-path="url(#_clip3)"><path d="M667.521,1440.48l247.432,-142.867l0,-95.23l-247.432,142.854l0,95.242Z" style="fill:#0ff;fill-rule:nonzero;"/></g></g><g opacity="0.15"><path d="M667.521,1250l0,95.239l247.432,-142.853l-82.47,-47.624l-164.962,95.238Z" style="fill:#0ff;fill-rule:nonzero;"/></g><g opacity="0.3"><clipPath id="_clip4"><path d="M667.516,1059.52l247.437,0l0,-238.09l-247.437,0l0,238.09Z" clip-rule="nonzero"/></clipPath><g clip-path="url(#_clip4)"><path d="M667.52,1059.52l247.433,-142.854l-0.001,-95.238l-247.437,142.858l0.005,95.234Z" style="fill:#0ff;fill-rule:nonzero;"/></g></g><g opacity="0.15"><clipPath id="_clip5"><path d="M667.307,964.29l247.645,0l0,-190.48l-247.645,0l0,190.48Z" clip-rule="nonzero"/></clipPath><g clip-path="url(#_clip5)"><path d="M667.308,869.172l0.208,95.117l247.437,-142.857l-82.477,-47.62l-165.168,95.36Z" style="fill:#0ff;fill-rule:nonzero;"/></g></g><g opacity="0.3"><clipPath id="_clip6"><path d="M585.038,2011.9l247.443,0l0,-238.094l-247.443,0l0,238.094Z" clip-rule="nonzero"/></clipPath><g clip-path="url(#_clip6)"><path d="M585.049,1869.05l247.432,142.85l-0.001,-95.239l-247.442,-142.855l0.011,95.244Z" style="fill:#0ff;fill-rule:nonzero;"/></g></g><g opacity="0.15"><clipPath id="_clip7"><path d="M585.038,1916.66l247.442,0l0,-190.477l-247.442,0l0,190.477Z" clip-rule="nonzero"/></clipPath><g clip-path="url(#_clip7)"><path d="M667.521,1726.19l164.959,95.24l0,95.236l-247.442,-142.857l82.483,-47.62Z" style="fill:#0ff;fill-rule:nonzero;"/></g></g><g opacity="0.3"><clipPath id="_clip8"><path d="M585.045,1630.96l247.439,0l0,-238.096l-247.439,0l0,238.096Z" clip-rule="nonzero"/></clipPath><g clip-path="url(#_clip8)"><path d="M832.481,1630.96l-247.435,-142.859l-0.001,-95.242l247.439,142.856l-0.004,95.245Z" style="fill:#0ff;fill-rule:nonzero;"/></g></g><g opacity="0.15"><path d="M832.637,1440.45l0.003,95.236l-247.595,-142.831l82.596,-47.518l164.996,95.113Z" style="fill:#0ff;fill-rule:nonzero;"/></g><g opacity="0.3"><clipPath id="_clip9"><path d="M585.042,1250l247.442,0l0,-238.09l-247.442,0l0,238.09Z" clip-rule="nonzero"/></clipPath><g clip-path="url(#_clip9)"><path d="M832.483,1250l-247.441,-142.854l0,-95.238l247.441,142.854l0,95.238Z" style="fill:#0ff;fill-rule:nonzero;"/></g></g><g opacity="0.15"><path d="M832.481,1059.53l0.002,95.231l-247.441,-142.853l82.37,-47.617l165.069,95.239Z" style="fill:#0ff;fill-rule:nonzero;"/></g><g opacity="0.3"><path d="M585.037,726.193l0.001,-95.24l247.452,142.909l0.001,95.237l-247.454,-142.906Z" style="fill:#0ff;fill-rule:nonzero;"/></g><g opacity="0.15"><clipPath id="_clip10"><path d="M585.038,773.81l329.867,0l0,-190.48l-329.867,0l0,190.48Z" clip-rule="nonzero"/></clipPath><g clip-path="url(#_clip10)"><path d="M667.517,583.334l247.389,142.646l-82.43,47.832l-247.438,-142.859l82.479,-47.619Z" style="fill:#0ff;fill-rule:nonzero;"/></g></g></g><defs><radialGradient id="_Radial1" cx="0" cy="0" r="1" gradientUnits="userSpaceOnUse" gradientTransform="matrix(1030.78,0,0,1030.78,750,1250)"><stop offset="0" style="stop-color:#333;stop-opacity:1"/><stop offset="1" style="stop-color:#000;stop-opacity:1"/></radialGradient></defs></svg>