<?xml version="1.0" encoding="UTF-8" standalone="no"?><!DOCTYPE svg PUBLIC "-//W3C//DTD SVG 1.1//EN" "http://www.w3.org/Graphics/SVG/1.1/DTD/svg11.dtd"><svg width="100%" height="100%" viewBox="0 0 1500 2500" version="1.1" xmlns="http://www.w3.org/2000/svg" xmlns:xlink="http://www.w3.org/1999/xlink" xml:space="preserve" xmlns:serif="http://www.serif.com/" style="fill-rule:evenodd;clip-rule:evenodd;stroke-linejoin:round;stroke-miterlimit:2;"><g id="Layer-2" serif:id="Layer 2"><rect x="0" y="0" width="1500" height="2500" style="fill:url(#_Radial1);"/></g><g id="Layer-1" serif:id="Layer 1"><path d="M532.665,1761.44l0.932,-0.538c2.898,-1.673 4.208,-3.326 3.931,-4.961c-0.276,-1.633 -1.808,-3.255 -4.598,-4.865c-2.787,-1.61 -5.598,-2.495 -8.428,-2.656c-2.831,-0.159 -5.694,0.597 -8.593,2.27l-0.931,0.538l17.687,10.212Zm22.828,-23.392c5.497,3.174 9.352,6.356 11.559,9.541c2.209,3.189 3.074,6.299 2.602,9.331c-0.473,3.035 -2.066,5.978 -4.78,8.833c-2.714,2.856 -6.281,5.557 -10.696,8.107l19.003,10.972l-22.045,12.727l-79.715,-46.022l22.045,-12.729c4.415,-2.549 9.096,-4.607 14.041,-6.176c4.947,-1.565 10.044,-2.486 15.299,-2.759c5.252,-0.273 10.641,0.228 16.161,1.502c5.521,1.276 11.029,3.5 16.526,6.673" style="fill:#fff;fill-rule:nonzero;"/><path d="M530.31,1717.54l40.676,-23.483l20.914,12.074l-18.63,10.756l8.845,5.106l18.319,-10.577l19.838,11.454l-18.319,10.577l9.203,5.313l19.354,-11.174l20.915,12.074l-41.4,23.902l-79.715,-46.022Z" style="fill:#fff;fill-rule:nonzero;"/><path d="M639.165,1699.96l1.139,-0.658c2.622,-1.514 4.172,-3.188 4.644,-5.027c0.475,-1.836 -0.882,-3.676 -4.069,-5.516c-3.186,-1.84 -6.372,-2.622 -9.556,-2.35c-3.181,0.275 -6.085,1.168 -8.707,2.682l-1.138,0.656l17.687,10.213Zm-61.244,-9.904l23.805,-13.744c4.415,-2.549 9.181,-4.518 14.296,-5.909c5.116,-1.387 10.367,-2.121 15.756,-2.196c5.389,-0.075 10.793,0.554 16.21,1.889c5.417,1.335 10.635,3.45 15.655,6.348c3.984,2.301 6.886,4.536 8.709,6.703c1.823,2.168 3.064,4.12 3.722,5.854c0.693,1.994 0.892,3.901 0.602,5.725l39.23,7.711l-25.875,14.938l-30.549,-5.686l20.199,11.662l-22.045,12.728l-79.715,-46.023Z" style="fill:#fff;fill-rule:nonzero;"/><path d="M691.372,1688.03c2.077,-0.554 4.103,-1.218 6.077,-1.99c1.778,-0.566 3.667,-1.289 5.665,-2.167c1.999,-0.878 3.894,-1.834 5.689,-2.87c3.173,-1.832 3.407,-3.532 0.698,-5.095c-1.035,-0.598 -2.574,-0.929 -4.616,-0.992c-2.042,-0.063 -4.462,-0.046 -7.259,0.051c-2.801,0.098 -5.84,0.175 -9.124,0.231c-3.284,0.057 -6.703,-0.085 -10.259,-0.426c-3.555,-0.338 -7.11,-0.976 -10.666,-1.915c-3.555,-0.936 -7.006,-2.372 -10.351,-4.304c-3.745,-2.162 -6.467,-4.409 -8.162,-6.743c-1.695,-2.333 -2.463,-4.649 -2.305,-6.948c0.157,-2.299 1.136,-4.543 2.933,-6.731c1.8,-2.189 4.285,-4.199 7.46,-6.032c1.657,-0.956 3.413,-1.854 5.267,-2.696c1.855,-0.841 3.517,-1.594 4.988,-2.259c1.756,-0.737 3.481,-1.457 5.168,-2.155l22.349,12.902c-0.631,0.276 -1.332,0.587 -2.103,0.939c-0.631,0.273 -1.332,0.586 -2.101,0.937c-0.77,0.353 -1.535,0.748 -2.293,1.186c-0.414,0.239 -0.911,0.55 -1.493,0.931c-0.581,0.382 -1.068,0.778 -1.46,1.188c-0.393,0.412 -0.596,0.852 -0.613,1.319c-0.014,0.47 0.334,0.91 1.052,1.325c0.639,0.369 1.9,0.559 3.787,0.574c1.889,0.013 4.143,0.001 6.762,-0.04c2.621,-0.041 5.578,-0.046 8.873,-0.017c3.294,0.03 6.69,0.277 10.187,0.742c3.496,0.465 7.067,1.212 10.705,2.238c3.642,1.026 7.134,2.505 10.48,4.436c3.508,2.026 6.311,4.202 8.411,6.53c2.101,2.33 3.27,4.737 3.506,7.222c0.234,2.487 -0.579,5.025 -2.437,7.617c-1.86,2.592 -4.962,5.142 -9.309,7.652c-2.623,1.514 -5.195,2.839 -7.715,3.971c-2.523,1.133 -4.846,2.084 -6.967,2.85c-2.402,0.925 -4.706,1.705 -6.92,2.339l-23.904,-13.8Z" style="fill:#fff;fill-rule:nonzero;"/><path d="M746.081,1638.23l0.932,-0.538c2.898,-1.674 4.208,-3.326 3.931,-4.961c-0.277,-1.633 -1.808,-3.255 -4.599,-4.865c-2.787,-1.61 -5.598,-2.495 -8.427,-2.656c-2.831,-0.159 -5.694,0.597 -8.593,2.27l-0.931,0.538l17.687,10.212Zm22.828,-23.392c5.496,3.174 9.352,6.356 11.559,9.541c2.209,3.189 3.074,6.3 2.602,9.332c-0.473,3.034 -2.066,5.977 -4.781,8.832c-2.713,2.856 -6.28,5.557 -10.695,8.107l19.003,10.971l-22.046,12.728l-79.715,-46.023l22.046,-12.728c4.415,-2.549 9.096,-4.607 14.041,-6.176c4.947,-1.565 10.044,-2.486 15.299,-2.759c5.252,-0.273 10.641,0.228 16.161,1.502c5.52,1.276 11.028,3.5 16.526,6.673" style="fill:#fff;fill-rule:nonzero;"/><path d="M743.727,1594.33l40.676,-23.484l20.914,12.075l-18.63,10.756l8.845,5.106l18.319,-10.577l19.838,11.453l-18.319,10.578l9.203,5.313l19.354,-11.175l20.915,12.075l-41.4,23.902l-79.715,-46.022Z" style="fill:#fff;fill-rule:nonzero;"/><path d="M829.7,1590.78c-6.373,-3.68 -11.164,-7.562 -14.371,-11.644c-3.208,-4.082 -4.985,-8.137 -5.34,-12.166c-0.351,-4.027 0.704,-7.879 3.166,-11.557c2.464,-3.675 6.181,-6.948 11.149,-9.818c3.933,-2.27 7.873,-4.039 11.82,-5.306c3.947,-1.265 7.582,-2.214 10.905,-2.846c3.827,-0.737 7.432,-1.207 10.808,-1.409l11.242,19.039c-2.062,0.086 -4.185,0.255 -6.371,0.505c-1.811,0.31 -3.826,0.76 -6.045,1.349c-2.219,0.592 -4.364,1.485 -6.435,2.68c-2.139,1.236 -3.666,2.624 -4.584,4.166c-0.917,1.543 -1.29,3.139 -1.124,4.788c0.169,1.652 0.888,3.282 2.161,4.894c1.273,1.611 3.066,3.084 5.376,4.418c2.311,1.334 4.877,2.358 7.704,3.073c2.824,0.716 5.685,1.112 8.579,1.188c2.893,0.079 5.71,-0.168 8.449,-0.739c2.741,-0.569 5.212,-1.491 7.421,-2.766c2.208,-1.275 3.857,-2.594 4.943,-3.958c1.088,-1.364 1.819,-2.615 2.197,-3.751c0.502,-1.303 0.674,-2.599 0.515,-3.886l32.977,6.49c-0.109,2.088 -0.764,4.261 -1.963,6.515c-1.093,1.921 -2.714,4.051 -4.862,6.396c-2.15,2.344 -5.226,4.672 -9.227,6.983c-5.382,3.107 -11.365,5.388 -17.951,6.845c-6.586,1.456 -13.368,2.082 -20.345,1.878c-6.976,-0.202 -13.967,-1.251 -20.968,-3.142c-7.002,-1.892 -13.611,-4.631 -19.826,-8.219" style="fill:#fff;fill-rule:nonzero;"/><path d="M884.908,1536.96l-12.73,7.35l-20.915,-12.075l48.232,-27.846l20.914,12.074l-12.73,7.351l58.8,33.948l-22.77,13.146l-58.801,-33.948Z" style="fill:#fff;fill-rule:nonzero;"/><path d="M903.116,1502.3l23.391,-13.505l79.714,46.024l-23.39,13.504l-79.715,-46.023Z" style="fill:#fff;fill-rule:nonzero;"/><path d="M952.175,1473.98l46.354,13.256l-22.86,-26.821l24.116,-13.924l52.805,61.559l-17.906,10.338l-106.625,-30.486l24.116,-13.923Z" style="fill:#fff;fill-rule:nonzero;"/><path d="M1001.34,1445.59l40.676,-23.484l20.914,12.075l-18.63,10.757l8.844,5.105l18.32,-10.576l19.838,11.453l-18.32,10.577l9.203,5.314l19.355,-11.175l20.915,12.075l-41.4,23.902l-79.715,-46.023Z" style="fill:#fff;fill-rule:nonzero;"/><path d="M286.603,1784.15l-86.604,-50l75,-43.301l86.604,50l-75,43.301Z" style="fill:#fff;fill-rule:nonzero;"/><path d="M418.301,1810.85l-43.301,-25l-74.83,43.203l-100.67,-58.122l0,43l5.525,3.19c0.268,-10.105 8.65,-13.505 18.975,-7.544c10.324,5.96 18.707,19.04 18.974,29.455l58.051,33.515c0.268,-10.106 8.65,-13.506 18.975,-7.545c10.324,5.961 18.707,19.04 18.974,29.455l4.526,2.613l0,-43l-0.029,-0.017l74.83,-43.203Z" style="fill:#fff;fill-rule:nonzero;"/><path d="M238.5,1836.45c0,8.284 -6.716,11.123 -15,6.34c-8.284,-4.783 -15,-15.376 -15,-23.66c0,-8.284 6.716,-11.123 15,-6.34c8.284,4.783 15,15.376 15,23.66" style="fill:#fff;fill-rule:nonzero;"/><path d="M334.5,1891.87c0,8.284 -6.716,11.123 -15,6.34c-8.284,-4.783 -15,-15.376 -15,-23.66c0,-8.284 6.716,-11.123 15,-6.34c8.284,4.783 15,15.376 15,23.66" style="fill:#fff;fill-rule:nonzero;"/><path d="M363.5,1864.25c0,3.59 -2.91,8.181 -6.5,10.253c-3.59,2.073 -6.5,0.843 -6.5,-2.747c0,-3.59 2.91,-8.18 6.5,-10.253c3.59,-2.072 6.5,-0.843 6.5,2.747" style="fill:#fff;fill-rule:nonzero;"/><path d="M411.5,1836.54c0,3.59 -2.91,8.181 -6.5,10.253c-3.59,2.073 -6.5,0.843 -6.5,-2.747c0,-3.59 2.91,-8.18 6.5,-10.253c3.59,-2.072 6.5,-0.843 6.5,2.747" style="fill:#fff;fill-rule:nonzero;"/><path d="M1452.06,917.676l-700.001,-404.146l0,-24.999l700,404.145l0,25Z" style="fill:#fff;fill-rule:nonzero;"/><path d="M852.062,346.266l0,25l216.675,125.097c8.633,-4.268 17.97,-7.326 27.791,-8.954l-244.466,-141.143Zm500.001,288.675l-145.382,-83.936c3.357,8.968 5.459,18.546 6.102,28.524l139.279,80.412l0,-25Zm-172.279,25.535l172.279,99.465l0,-25l-157.543,-90.957c-4.293,6.029 -9.241,11.558 -14.736,16.492m-427.721,-271.945l0,25l263.074,151.886c1.537,-7.329 3.877,-14.361 6.923,-21.003l-269.997,-155.883Zm269.997,155.883l172.46,99.57c11.637,-16.346 18.481,-36.34 18.481,-57.934c0,-2.191 -0.078,-4.365 -0.217,-6.521l-144.046,-83.166c-20.548,10.161 -37.102,27.171 -46.678,48.051m-9.059,41.636c0,55.229 44.772,100 100,100c25.67,0 49.077,-9.676 66.783,-25.574l-164.647,-95.059c-1.396,6.659 -2.136,13.56 -2.136,20.633m100,-100c-5.611,0 -11.111,0.47 -16.472,1.359l110.153,63.596c-14.2,-37.941 -50.783,-64.955 -93.681,-64.955" style="fill:#fff;fill-rule:nonzero;"/><path d="M1227.06,487.772l-250.001,-144.337l0,-25l250,144.337l0,25Z" style="fill:#fff;fill-rule:nonzero;"/><path d="M1250.5,876.304l101.563,58.637l0,25l-101.563,-58.637l0,-25Z" style="fill:#fff;fill-rule:nonzero;"/><path d="M977.48,743.675l-325.417,-187.879l0,-25l347.068,200.38l-21.651,12.499Z" style="fill:#fff;fill-rule:nonzero;"/><path d="M364.586,783.791l-1.494,-2.602l133.941,-76.91l34.74,25.393l-1.77,2.422l-33.166,-24.242l-132.251,75.939Z" style="fill:#fff;fill-rule:nonzero;"/><path d="M364.586,819.338l-1.494,-2.602l133.941,-76.91l34.74,25.393l-1.77,2.422l-33.166,-24.242l-132.251,75.939Z" style="fill:#fff;fill-rule:nonzero;"/><rect x="419.14" y="736.944" width="5" height="38.833" style="fill:#fff;"/><path d="M437.054,745.167l2.555,4.298l-33.384,19.841l-2.554,-4.299l33.383,-19.84Z" style="fill:#fff;"/><path d="M437.494,760.619l-11.808,-7.943l-10.832,5.879l-1.43,-2.637l12.428,-6.746l13.317,8.959l-1.675,2.488Z" style="fill:#fff;fill-rule:nonzero;"/><path d="M535.902,810.37l-24.457,0l-17.628,-11.859l1.674,-2.489l16.87,11.348l23.541,0l0,3Z" style="fill:#fff;fill-rule:nonzero;"/><path d="M512.175,807.395l34.791,6.403l-0.543,2.951l-34.791,-6.403l0.543,-2.951Z" style="fill:#fff;"/><path d="M602.665,882.314l-87.387,-50.453l12.614,-7.283l87.386,50.454l-12.613,7.282Z" style="fill:#fff;fill-rule:nonzero;"/></g><g id="Layer-3" serif:id="Layer 3"><path d="M1250.5,1394.34l0,115.471l-100,-57.741l-100,-57.73l-100,57.73l0,0.01l-99.99,57.731l-0.01,0l-100,57.739l-200,115.46l0,0.01l-99.99,57.73l-0.01,0l0,-0.01l-200,-115.46l0,-115.469l200,115.459l100,-57.73l99.99,-57.729l0.01,0l0,-0.011l200,-115.46l0,-0.01l100,-57.73l99.99,-57.73l0.01,0l100,57.741l100,57.729Z" style="fill:#fff;fill-rule:nonzero;"/><path d="M1250.5,932.46l0,115.47l-100,-57.74l-100,-57.73l-100,57.73l0,0.01l-99.99,57.73l-0.01,0l-100,57.74l-200,115.46l0,0.01l-99.99,57.73l-0.01,0l0,-0.01l-200,-115.46l0,-115.47l200,115.46l100,-57.73l99.99,-57.73l0.01,0l0,-0.01l200,-115.46l0,-0.01l100,-57.73l99.99,-57.73l0.01,0l100,57.741l100,57.729Z" style="fill:#fff;fill-rule:nonzero;"/><path d="M1250.5,701.51l0,115.471l-100,-57.731l-100,-57.73l-100,57.73l-100,57.74l-200,115.46l0,0.01l-100,57.731l-100,57.739l-100,-57.739l-100,-57.731l0,-115.47l100,57.741l100,57.729l100,-57.74l100,-57.73l100,-57.74l100,-57.73l100,-57.739l100,-57.731l100,57.731l100,57.729Z" style="fill:#fff;fill-rule:nonzero;"/><path d="M1250.5,1163.39l0,115.471l-100,-57.731l-100,-57.729l-100,57.729l-100,57.74l-200,115.46l0,0.01l-100,57.731l-100,57.74l-100,-57.74l-100,-57.731l0,-115.47l100,57.741l100,57.729l100,-57.74l100,-57.73l100,-57.74l100,-57.729l100,-57.74l100,-57.731l100,57.731l100,57.729Z" style="fill:#fff;fill-rule:nonzero;"/></g><defs><radialGradient id="_Radial1" cx="0" cy="0" r="1" gradientUnits="userSpaceOnUse" gradientTransform="matrix(1030.78,0,0,1030.78,750,1250)"><stop offset="0" style="stop-color:#333;stop-opacity:1"/><stop offset="1" style="stop-color:#000;stop-opacity:1"/></radialGradient></defs></svg>