<?xml version="1.0" encoding="UTF-8" standalone="no"?><!DOCTYPE svg PUBLIC "-//W3C//DTD SVG 1.1//EN" "http://www.w3.org/Graphics/SVG/1.1/DTD/svg11.dtd"><svg width="100%" height="100%" viewBox="0 0 1000 1000" version="1.1" xmlns="http://www.w3.org/2000/svg" xmlns:xlink="http://www.w3.org/1999/xlink" xml:space="preserve" xmlns:serif="http://www.serif.com/" style="fill-rule:evenodd;clip-rule:evenodd;stroke-miterlimit:10;"><g id="Layer-1" serif:id="Layer 1"><rect x="0" y="0" width="999.5" height="1000" style="fill:url(#_Radial1);"/><path d="M1090,5l-1211,294" style="fill:none;fill-rule:nonzero;stroke:#b78b29;stroke-width:2px;"/><path d="M556.371,15.864l-33.174,157.492l66.106,0.644l-32.932,-158.136Z" style="fill:#2b2b2b;fill-rule:nonzero;"/><path d="M632.889,55.382l-29.889,141.901l59.561,0.58l-29.672,-142.481Z" style="fill:#2b2b2b;fill-rule:nonzero;"/><path d="M389.412,61.864l-44.473,211.136l88.621,0.864l-44.148,-212Z" style="fill:#2b2b2b;fill-rule:nonzero;"/><path d="M273.412,99.864l-44.473,211.136l88.621,0.864l-44.148,-212Z" style="fill:#2b2b2b;fill-rule:nonzero;"/><path d="M242.412,129.864l-44.473,211.136l88.621,0.864l-44.148,-212Z" style="fill:#2b2b2b;fill-rule:nonzero;"/><path d="M702.426,0l-25.487,121l56.06,0.546l-25.311,-121.546l-5.262,0Z" style="fill:#2b2b2b;fill-rule:nonzero;"/><path d="M811.429,0l-16.43,78l46.561,0.454l-16.338,-78.454l-13.793,0Z" style="fill:#2b2b2b;fill-rule:nonzero;"/><path d="M0,269.612l0,730.388l1000,0l0,-973.263l-1000,242.875Z" style="fill:#939393;fill-rule:nonzero;"/><path d="M433.412,15.864l-44.473,211.136l88.621,0.864l-44.148,-212Z" style="fill:#2b2b2b;fill-rule:nonzero;"/><path d="M524.371,42.508l-33.173,157.492l66.105,0.644l-32.932,-158.136Z" style="fill:#2b2b2b;fill-rule:nonzero;"/><path d="M584.412,185.864l-44.473,211.136l88.621,0.864l-44.148,-212Z" style="fill:#2b2b2b;fill-rule:nonzero;"/><path d="M356.412,623.863l-44.473,211.137l88.621,0.863l-44.148,-212Z" style="fill:#2b2b2b;fill-rule:nonzero;"/><path d="M286.412,585.863l-44.473,211.137l88.621,0.863l-44.148,-212Z" style="fill:#2b2b2b;fill-rule:nonzero;"/><path d="M633.412,326.864l-44.473,211.136l88.621,0.864l-44.148,-212Z" style="fill:#2b2b2b;fill-rule:nonzero;"/><path d="M515.412,91.864l-44.473,211.136l88.621,0.864l-44.148,-212Z" style="fill:#2b2b2b;fill-rule:nonzero;"/><path d="M413.412,197.864l-44.473,211.136l88.621,0.864l-44.148,-212Z" style="fill:#2b2b2b;fill-rule:nonzero;"/><path d="M137.412,116.864l-44.473,211.136l88.621,0.864l-44.148,-212Z" style="fill:#2b2b2b;fill-rule:nonzero;"/><path d="M791.412,373.864l-44.473,211.136l88.621,0.864l-44.148,-212Z" style="fill:#2b2b2b;fill-rule:nonzero;"/><path d="M929.939,491l70.06,0.683l0,-88.947l-25.587,-122.871l-44.473,211.135Z" style="fill:#2b2b2b;fill-rule:nonzero;"/><path d="M781.412,212.864l-44.473,211.136l88.621,0.864l-44.148,-212Z" style="fill:#2b2b2b;fill-rule:nonzero;"/><path d="M851.412,279.864l-44.473,211.136l88.621,0.864l-44.148,-212Z" style="fill:#2b2b2b;fill-rule:nonzero;"/><path d="M356.412,106.864l-44.473,211.136l88.621,0.864l-44.148,-212Z" style="fill:#2b2b2b;fill-rule:nonzero;"/><path d="M387.412,101.864l-44.473,211.136l88.621,0.864l-44.148,-212Z" style="fill:#2b2b2b;fill-rule:nonzero;"/><path d="M424.412,133.864l-44.473,211.136l88.621,0.864l-44.148,-212Z" style="fill:#2b2b2b;fill-rule:nonzero;"/><path d="M455.412,161.864l-44.473,211.136l88.621,0.864l-44.148,-212Z" style="fill:#2b2b2b;fill-rule:nonzero;"/><path d="M312.412,99.864l-44.473,211.136l88.621,0.864l-44.148,-212Z" style="fill:#2b2b2b;fill-rule:nonzero;"/><path d="M181.412,124.864l-44.473,211.136l88.621,0.864l-44.148,-212Z" style="fill:#2b2b2b;fill-rule:nonzero;"/><path d="M216.412,143.864l-44.473,211.136l88.621,0.864l-44.148,-212Z" style="fill:#2b2b2b;fill-rule:nonzero;"/><path d="M187.412,208.864l-44.473,211.136l88.621,0.864l-44.148,-212Z" style="fill:#2b2b2b;fill-rule:nonzero;"/><path d="M263.412,223.864l-44.473,211.136l88.621,0.864l-44.148,-212Z" style="fill:#2b2b2b;fill-rule:nonzero;"/><path d="M589.412,15.864l-44.473,211.136l88.621,0.864l-44.148,-212Z" style="fill:#2b2b2b;fill-rule:nonzero;"/><path d="M674.165,0l-28.226,134l61.09,0.595l-28.03,-134.595l-4.834,0Z" style="fill:#2b2b2b;fill-rule:nonzero;"/><path d="M677.412,471.864l-44.473,211.136l88.621,0.864l-44.148,-212Z" style="fill:#2b2b2b;fill-rule:nonzero;"/><path d="M761.36,4.864l-30.236,143.549l60.252,0.587l-30.016,-144.136Z" style="fill:#2b2b2b;fill-rule:nonzero;"/><path d="M906.12,0l-43.18,205l88.62,0.863l-42.87,-205.863l-2.57,0Z" style="fill:#2b2b2b;fill-rule:nonzero;"/><path d="M965.429,0l-29.49,140l64.061,0.624l0,-117.701l-4.774,-22.923l-29.798,0Z" style="fill:#2b2b2b;fill-rule:nonzero;"/><path d="M930.412,348.864l-44.473,211.136l88.621,0.864l-44.148,-212Z" style="fill:#2b2b2b;fill-rule:nonzero;"/><path d="M906.412,299.864l-44.473,211.136l88.621,0.864l-44.148,-212Z" style="fill:#2b2b2b;fill-rule:nonzero;"/><path d="M882.412,227.864l-44.473,211.136l88.621,0.864l-44.148,-212Z" style="fill:#2b2b2b;fill-rule:nonzero;"/><path d="M846.412,326.864l-44.473,211.136l88.621,0.864l-44.148,-212Z" style="fill:#2b2b2b;fill-rule:nonzero;"/><path d="M731.412,365.864l-44.473,211.136l88.621,0.864l-44.148,-212Z" style="fill:#2b2b2b;fill-rule:nonzero;"/><path d="M824.412,55.864l-44.473,211.136l88.621,0.864l-44.148,-212Z" style="fill:#2b2b2b;fill-rule:nonzero;"/><path d="M721.412,15.864l-44.473,211.136l88.621,0.864l-44.148,-212Z" style="fill:#2b2b2b;fill-rule:nonzero;"/><path d="M753.412,44.864l-44.473,211.136l88.621,0.864l-44.148,-212Z" style="fill:#2b2b2b;fill-rule:nonzero;"/><path d="M744.412,31.864l-44.473,211.136l88.621,0.864l-44.148,-212Z" style="fill:#2b2b2b;fill-rule:nonzero;"/><path d="M783.412,33.864l-44.473,211.136l88.621,0.864l-44.148,-212Z" style="fill:#2b2b2b;fill-rule:nonzero;"/><path d="M798.412,23.864l-44.473,211.136l88.621,0.864l-44.148,-212Z" style="fill:#2b2b2b;fill-rule:nonzero;"/><path d="M826.412,47.864l-44.473,211.136l88.621,0.864l-44.148,-212Z" style="fill:#2b2b2b;fill-rule:nonzero;"/><path d="M874.689,0l-23.266,110.457l55.654,0.543l-23.115,-111l-9.273,0Z" style="fill:#2b2b2b;fill-rule:nonzero;"/><path d="M933.167,0l-14.744,70l55.654,0.542l-14.69,-70.542l-26.22,0Z" style="fill:#2b2b2b;fill-rule:nonzero;"/><path d="M886.412,129.864l-44.473,211.136l88.621,0.864l-44.148,-212Z" style="fill:#2b2b2b;fill-rule:nonzero;"/><path d="M843.412,79.864l-44.473,211.136l88.621,0.864l-44.148,-212Z" style="fill:#2b2b2b;fill-rule:nonzero;"/><path d="M925.412,97.864l-44.473,211.136l88.621,0.864l-44.148,-212Z" style="fill:#2b2b2b;fill-rule:nonzero;"/><path d="M949.939,317l50.061,0.488l0,-184.791l-5.588,-26.833l-44.473,211.136Z" style="fill:#2b2b2b;fill-rule:nonzero;"/><path d="M863.412,10.864l-44.473,211.136l88.621,0.864l-44.148,-212Z" style="fill:#2b2b2b;fill-rule:nonzero;"/><path d="M823.014,0l-41.074,195l88.62,0.863l-40.788,-195.863l-6.759,0Z" style="fill:#2b2b2b;fill-rule:nonzero;"/><path d="M617.412,23.864l-44.473,211.136l88.621,0.864l-44.148,-212Z" style="fill:#2b2b2b;fill-rule:nonzero;"/><path d="M714.412,121.864l-44.473,211.136l88.621,0.864l-44.148,-212Z" style="fill:#2b2b2b;fill-rule:nonzero;"/><path d="M761.412,143.864l-44.473,211.136l88.621,0.864l-44.148,-212Z" style="fill:#2b2b2b;fill-rule:nonzero;"/><path d="M819.412,144.864l-44.473,211.136l88.621,0.864l-44.148,-212Z" style="fill:#2b2b2b;fill-rule:nonzero;"/><path d="M943.412,181.864l-44.473,211.136l88.621,0.864l-44.148,-212Z" style="fill:#2b2b2b;fill-rule:nonzero;"/><path d="M933.939,420l66.061,0.643l0,-108.116l-21.587,-103.663l-44.474,211.136Z" style="fill:#2b2b2b;fill-rule:nonzero;"/><path d="M662.412,205.864l-44.473,211.136l88.621,0.864l-44.148,-212Z" style="fill:#2b2b2b;fill-rule:nonzero;"/><path d="M933.939,273l66.061,0.644l0,-108.116l-21.587,-103.664l-44.474,211.136Z" style="fill:#2b2b2b;fill-rule:nonzero;"/><path d="M937.384,0l-44.444,211l88.62,0.864l-44.12,-211.864l-0.057,0Z" style="fill:#2b2b2b;fill-rule:nonzero;"/><path d="M515.412,235.864l-44.473,211.136l88.621,0.864l-44.148,-212Z" style="fill:#2b2b2b;fill-rule:nonzero;"/><path d="M523.412,210.864l-44.473,211.136l88.621,0.864l-44.148,-212Z" style="fill:#2b2b2b;fill-rule:nonzero;"/><path d="M519.412,373.864l-44.473,211.136l88.621,0.864l-44.148,-212Z" style="fill:#2b2b2b;fill-rule:nonzero;"/><path d="M389.412,303.864l-44.473,211.136l88.621,0.864l-44.148,-212Z" style="fill:#2b2b2b;fill-rule:nonzero;"/><path d="M211.412,413.864l-44.473,211.136l88.621,0.864l-44.148,-212Z" style="fill:#2b2b2b;fill-rule:nonzero;"/><path d="M301.412,194.864l-44.473,211.136l88.621,0.864l-44.148,-212Z" style="fill:#2b2b2b;fill-rule:nonzero;"/><path d="M475.412,134.864l-44.473,211.136l88.621,0.864l-44.148,-212Z" style="fill:#2b2b2b;fill-rule:nonzero;"/><path d="M482.412,65.864l-44.473,211.136l88.621,0.864l-44.148,-212Z" style="fill:#2b2b2b;fill-rule:nonzero;"/><path d="M508.412,56.864l-44.473,211.136l88.621,0.864l-44.148,-212Z" style="fill:#2b2b2b;fill-rule:nonzero;"/><path d="M551.412,62.864l-44.473,211.136l88.621,0.864l-44.148,-212Z" style="fill:#2b2b2b;fill-rule:nonzero;"/><path d="M612.412,76.864l-44.473,211.136l88.621,0.864l-44.148,-212Z" style="fill:#2b2b2b;fill-rule:nonzero;"/><path d="M560.412,148.864l-44.473,211.136l88.621,0.864l-44.148,-212Z" style="fill:#2b2b2b;fill-rule:nonzero;"/><path d="M657.412,121.864l-44.473,211.136l88.621,0.864l-44.148,-212Z" style="fill:#2b2b2b;fill-rule:nonzero;"/><path d="M647.412,52.864l-44.473,211.136l88.621,0.864l-44.148,-212Z" style="fill:#2b2b2b;fill-rule:nonzero;"/><path d="M674.412,56.864l-44.473,211.136l88.621,0.864l-44.148,-212Z" style="fill:#2b2b2b;fill-rule:nonzero;"/><path d="M701.412,51.864l-44.473,211.136l88.621,0.864l-44.148,-212Z" style="fill:#2b2b2b;fill-rule:nonzero;"/><path d="M0,920.241l0,79.759l1000,0l0,-570.106l-1000,490.347Z" style="fill:#af894a;fill-rule:nonzero;"/><path d="M0,919.802l0,80.198l1000,0l0,-562.461l-1000,482.263Z" style="fill:#b5a491;fill-rule:nonzero;"/><path d="M0,915.107l0,84.893l1000,0l0,-552.218l-1000,467.325Z" style="fill:#939393;fill-rule:nonzero;"/><path d="M0,0l0,961.808l298.037,2.904l-200.9,-964.712l-97.137,0Z" style="fill:#2b2b2b;fill-rule:nonzero;"/></g><defs><radialGradient id="_Radial1" cx="0" cy="0" r="1" gradientUnits="userSpaceOnUse" gradientTransform="matrix(500.25,0,0,500.25,499.5,500)"><stop offset="0" style="stop-color:#f7931e;stop-opacity:1"/><stop offset="0.21" style="stop-color:#f7931e;stop-opacity:1"/><stop offset="1" style="stop-color:#5f6062;stop-opacity:1"/></radialGradient></defs></svg>