<?xml version="1.0" encoding="UTF-8" standalone="no"?><!DOCTYPE svg PUBLIC "-//W3C//DTD SVG 1.1//EN" "http://www.w3.org/Graphics/SVG/1.1/DTD/svg11.dtd"><svg width="100%" height="100%" viewBox="0 0 1500 2500" version="1.1" xmlns="http://www.w3.org/2000/svg" xmlns:xlink="http://www.w3.org/1999/xlink" xml:space="preserve" xmlns:serif="http://www.serif.com/" style="fill-rule:evenodd;clip-rule:evenodd;stroke-linejoin:round;stroke-miterlimit:2;"><g id="Layer-1" serif:id="Layer 1"><rect x="0" y="0" width="1500" height="2500" style="fill:url(#_Radial1);"/><path d="M1550.5,2144.89l0,115.471l-100,-57.731l100,-57.74Z" style="fill:#fff;fill-rule:nonzero;"/><path d="M1550.5,528.31l0,115.48l-100,-57.74l0,-0.01l100,-57.73Z" style="fill:#fff;fill-rule:nonzero;"/><path d="M1550.5,412.84l0,115.47l-100,-57.73l0,-0.01l100,-57.73Z" style="fill:#fff;fill-rule:nonzero;"/><path d="M1550.5,297.37l0,115.47l-100,-57.73l100,-57.74Z" style="fill:#fff;fill-rule:nonzero;"/><path d="M1550.5,297.37l-100,57.74l0,-115.47l100,57.73Z" style="fill:#fff;fill-rule:nonzero;"/><path d="M1250.5,586.045l100,57.74l-100,57.73l0,-115.47Z" style="fill:#fff;fill-rule:nonzero;"/><path d="M1550.5,412.84l-100,57.73l0,-115.46l100,57.73Z" style="fill:#fff;fill-rule:nonzero;"/><path d="M1550.5,528.31l-100,57.73l0,-115.459l100,57.729Z" style="fill:#fff;fill-rule:nonzero;"/><path d="M1350.5,528.315l100,57.73l0,-115.459l-100,57.729Z" style="fill:#fff;fill-rule:nonzero;"/><path d="M1550.5,2260.36l-100,57.729l0,-115.459l100,57.73Z" style="fill:#fff;fill-rule:nonzero;"/><path d="M1450.5,2318.09l0,0.01l-100,57.73l0,-115.469l100,57.729Z" style="fill:#fff;fill-rule:nonzero;"/><path d="M1450.5,2202.63l0,115.46l-100,-57.73l100,-57.73Z" style="fill:#fff;fill-rule:nonzero;"/><path d="M1350.5,528.31l0,115.47l-100,-57.74l99.99,-57.73l0.01,-0Z" style="fill:#fff;fill-rule:nonzero;"/><path d="M1450.5,239.64l0,115.47l-100,-57.74l100,-57.73Z" style="fill:#fff;fill-rule:nonzero;"/><path d="M1450.5,8.7l0,115.47l-0.01,0l-99.99,-57.73l0,-0.01l100,-57.73Z" style="fill:#fff;fill-rule:nonzero;"/><path d="M1450.5,239.64l-100,57.73l0,-115.47l100,57.74Z" style="fill:#fff;fill-rule:nonzero;"/><path d="M1450.5,586.05l-100,57.73l0,-115.469l100,57.739Z" style="fill:#fff;fill-rule:nonzero;"/><path d="M1350.5,66.44l99.99,57.73l-99.99,57.73l0,-115.46Z" style="fill:#fff;fill-rule:nonzero;"/><path d="M1350.5,2260.36l0,115.47l-100,-57.731l100,-57.739Z" style="fill:#fff;fill-rule:nonzero;"/><path d="M1350.5,990.19l0,115.47l-100,-57.731l100,-57.739Z" style="fill:#fff;fill-rule:nonzero;"/><path d="M1350.5,874.72l0,115.471l-100,-57.731l100,-57.74Z" style="fill:#fff;fill-rule:nonzero;"/><path d="M1350.5,874.72l0,115.471l100,-57.731l-100,-57.74Z" style="fill:#fff;fill-rule:nonzero;"/><path d="M1350.5,759.26l0,115.46l-99.99,-57.73l99.99,-57.73Z" style="fill:#fff;fill-rule:nonzero;"/><path d="M1150.51,759.265l0,115.46l99.99,-57.73l-99.99,-57.73Z" style="fill:#fff;fill-rule:nonzero;"/><path d="M1350.5,759.25l0,0.01l-99.99,57.73l-0.01,0l0,-115.47l100,57.73Z" style="fill:#fff;fill-rule:nonzero;"/><path d="M1150.5,759.245l0,0.01l99.99,57.73l0.01,0l0,-115.47l-100,57.73Z" style="fill:#fff;fill-rule:nonzero;"/><path d="M1050.52,817l0,115.46l99.99,-57.73l-99.99,-57.73Z" style="fill:#fff;fill-rule:nonzero;"/><path d="M1050.51,816.98l0,0.01l99.99,57.73l0.01,-0l0,-115.47l-100,57.73Z" style="fill:#fff;fill-rule:nonzero;"/><path d="M1050.51,932.45l0,0.01l99.99,57.73l0.01,-0l0,-115.47l-100,57.73Z" style="fill:#fff;fill-rule:nonzero;"/><path d="M1350.5,643.78l0,115.47l-100,-57.731l0,-0.01l100,-57.729Z" style="fill:#fff;fill-rule:nonzero;"/><path d="M1350.5,181.9l0,115.47l-100,-57.73l0,-0.01l100,-57.73Z" style="fill:#fff;fill-rule:nonzero;"/><path d="M1350.5,66.43l0,115.47l-100,-57.73l100,-57.74Z" style="fill:#fff;fill-rule:nonzero;"/><path d="M1350.5,-49.04l-100,57.74l0,-115.47l0.01,0l99.99,57.73Z" style="fill:#fff;fill-rule:nonzero;"/><path d="M1350.5,412.84l-100,57.74l0,-115.47l0.01,-0l99.99,57.73Z" style="fill:#fff;fill-rule:nonzero;"/><path d="M1350.5,874.72l-100,57.74l0,-115.469l0.01,-0l99.99,57.729Z" style="fill:#fff;fill-rule:nonzero;"/><path d="M1350.5,181.9l-100,57.73l0,-115.46l100,57.73Z" style="fill:#fff;fill-rule:nonzero;"/><path d="M1350.5,990.19l-100,57.739l0,-115.469l100,57.73Z" style="fill:#fff;fill-rule:nonzero;"/><path d="M1550.5,990.19l-100,57.739l0,-115.469l100,57.73Z" style="fill:#fff;fill-rule:nonzero;"/><path d="M1350.5,990.185l100,57.739l0,-115.469l-100,57.73Z" style="fill:#fff;fill-rule:nonzero;"/><path d="M1350.5,1452.07l100,57.739l0,-115.469l-100,57.73Z" style="fill:#fff;fill-rule:nonzero;"/><path d="M1350.5,2375.83l-100,57.74l0,-115.47l100,57.73Z" style="fill:#fff;fill-rule:nonzero;"/><path d="M1250.5,2318.1l0,115.471l-100,-57.741l100,-57.73Z" style="fill:#fff;fill-rule:nonzero;"/><path d="M1250.5,1394.34l0,115.47l-100,-57.74l100,-57.73Z" style="fill:#fff;fill-rule:nonzero;"/><path d="M1250.5,1278.86l0,0.01l-100,57.74l0,-115.48l100,57.73Z" style="fill:#fff;fill-rule:nonzero;"/><path d="M1250.5,1163.4l0,115.46l-100,-57.731l100,-57.729Z" style="fill:#fff;fill-rule:nonzero;"/><path d="M1250.5,1163.39l0,0.011l-100,57.729l0,-115.469l100,57.729Z" style="fill:#fff;fill-rule:nonzero;"/><path d="M1250.5,124.17l0,115.46l-100,-57.73l100,-57.73Z" style="fill:#fff;fill-rule:nonzero;"/><path d="M1250.5,1394.34l-100,57.73l0,-115.459l100,57.729Z" style="fill:#fff;fill-rule:nonzero;"/><path d="M1250.5,1509.81l-100,57.73l0,-115.469l100,57.739Z" style="fill:#fff;fill-rule:nonzero;"/><path d="M1250.5,2433.57l-100,57.729l0,-115.469l100,57.74Z" style="fill:#fff;fill-rule:nonzero;"/><path d="M1150.5,2375.83l0,115.47l-100,-57.73l100,-57.74Z" style="fill:#fff;fill-rule:nonzero;"/><path d="M1150.5,2260.37l0,115.46l-100,-57.731l100,-57.729Z" style="fill:#fff;fill-rule:nonzero;"/><path d="M1150.5,2144.89l0,115.48l-100,-57.74l0,-0.01l100,-57.73Z" style="fill:#fff;fill-rule:nonzero;"/><path d="M1150.5,2029.42l0,115.47l-100,-57.73l0,-0.01l100,-57.73Z" style="fill:#fff;fill-rule:nonzero;"/><path d="M1150.5,1913.95l0,115.47l-100,-57.73l100,-57.74Z" style="fill:#fff;fill-rule:nonzero;"/><path d="M1550.5,2029.42l0,115.47l-100,-57.73l0,-0.01l100,-57.73Z" style="fill:#fff;fill-rule:nonzero;"/><path d="M1350.5,1913.95l0,115.47l-100,-57.73l100,-57.74Z" style="fill:#fff;fill-rule:nonzero;"/><path d="M1350.5,1913.95l0,115.47l100,-57.73l-100,-57.74Z" style="fill:#fff;fill-rule:nonzero;"/><path d="M1150.5,1798.49l0,115.46l-100,-57.731l100,-57.729Z" style="fill:#fff;fill-rule:nonzero;"/><path d="M1150.5,1798.49l0,115.46l100,-57.731l-100,-57.729Z" style="fill:#fff;fill-rule:nonzero;"/><path d="M1150.5,1336.61l0,115.46l-100,-57.731l100,-57.729Z" style="fill:#fff;fill-rule:nonzero;"/><path d="M1150.5,1221.13l0,115.48l-100,-57.74l0,-0.01l100,-57.73Z" style="fill:#fff;fill-rule:nonzero;"/><path d="M1150.5,1105.66l0,115.47l-100,-57.73l0,-0.011l100,-57.729Z" style="fill:#fff;fill-rule:nonzero;"/><path d="M1150.5,412.85l0,115.459l-100,-57.729l100,-57.73Z" style="fill:#fff;fill-rule:nonzero;"/><path d="M1150.5,297.37l0,115.48l-100,-57.74l0,-0.01l100,-57.73Z" style="fill:#fff;fill-rule:nonzero;"/><path d="M1150.5,181.9l0,115.47l-100,-57.73l0,-0.01l100,-57.73Z" style="fill:#fff;fill-rule:nonzero;"/><path d="M1150.5,66.43l0,115.47l-100,-57.73l100,-57.74Z" style="fill:#fff;fill-rule:nonzero;"/><path d="M1150.5,-49.03l0,115.46l-100,-57.73l100,-57.73Z" style="fill:#fff;fill-rule:nonzero;"/><path d="M1050.5,-106.77l100,57.74l-100,57.73l0,-115.47Z" style="fill:#fff;fill-rule:nonzero;"/><path d="M1150.5,66.43l-100,57.74l0,-115.47l100,57.73Z" style="fill:#fff;fill-rule:nonzero;"/><path d="M1050.5,355.11l100,57.74l-100,57.73l0,-115.47Z" style="fill:#fff;fill-rule:nonzero;"/><path d="M1050.5,1278.87l100,57.74l-100,57.73l0,-115.47Z" style="fill:#fff;fill-rule:nonzero;"/><path d="M1050.5,1740.75l100,57.74l-100,57.73l0,-115.47Z" style="fill:#fff;fill-rule:nonzero;"/><path d="M1150.5,1913.95l-100,57.74l0,-115.47l100,57.73Z" style="fill:#fff;fill-rule:nonzero;"/><path d="M1050.5,2202.63l100,57.74l-100,57.73l0,-115.47Z" style="fill:#fff;fill-rule:nonzero;"/><path d="M1150.5,2375.83l-100,57.74l0,-115.47l100,57.73Z" style="fill:#fff;fill-rule:nonzero;"/><path d="M1150.5,297.37l-100,57.73l0,-115.46l100,57.73Z" style="fill:#fff;fill-rule:nonzero;"/><path d="M1150.5,1221.13l-100,57.73l0,-115.459l100,57.729Z" style="fill:#fff;fill-rule:nonzero;"/><path d="M1150.5,2029.42l-100,57.73l0,-115.459l100,57.729Z" style="fill:#fff;fill-rule:nonzero;"/><path d="M1350.5,1913.95l-100,57.74l0,-115.47l100,57.73Z" style="fill:#fff;fill-rule:nonzero;"/><path d="M1350.5,2029.41l100,57.73l0,-115.459l-100,57.729Z" style="fill:#fff;fill-rule:nonzero;"/><path d="M1550,2029.41l-100,57.73l0,-115.459l100,57.729Z" style="fill:#fff;fill-rule:nonzero;"/><path d="M1150.5,2144.89l-100,57.73l0,-115.459l100,57.729Z" style="fill:#fff;fill-rule:nonzero;"/><path d="M1150.5,2491.3l-100,57.73l0,-115.459l100,57.729Z" style="fill:#fff;fill-rule:nonzero;"/><path d="M950.5,2375.83l0,115.47l-100,-57.73l100,-57.74Z" style="fill:#fff;fill-rule:nonzero;"/><path d="M950.5,2491.3l0,115.47l-100,-57.73l100,-57.74Z" style="fill:#fff;fill-rule:nonzero;"/><path d="M950.5,2260.37l0,115.46l-100,-57.731l100,-57.729Z" style="fill:#fff;fill-rule:nonzero;"/><path d="M950.5,2144.89l0,115.48l-100,-57.74l0,-0.01l100,-57.73Z" style="fill:#fff;fill-rule:nonzero;"/><path d="M950.5,2029.42l0,115.47l-100,-57.73l0,-0.01l100,-57.73Z" style="fill:#fff;fill-rule:nonzero;"/><path d="M850.5,2202.63l100,57.74l-100,57.73l0,-115.47Z" style="fill:#fff;fill-rule:nonzero;"/><path d="M950.5,2375.83l-100,57.74l0,-115.47l100,57.73Z" style="fill:#fff;fill-rule:nonzero;"/><path d="M950.5,2029.42l-100,57.73l0,-115.459l100,57.729Z" style="fill:#fff;fill-rule:nonzero;"/><path d="M950.5,2144.89l-100,57.73l0,-115.459l100,57.729Z" style="fill:#fff;fill-rule:nonzero;"/><path d="M950.5,2491.3l-100,57.73l0,-115.459l100,57.729Z" style="fill:#fff;fill-rule:nonzero;"/><path d="M750,2375.83l0,115.47l100,-57.73l-100,-57.74Z" style="fill:#fff;fill-rule:nonzero;"/><path d="M750,2029.42l0,115.47l100,-57.73l0,-0.01l-100,-57.73Z" style="fill:#fff;fill-rule:nonzero;"/><path d="M750,2144.89l100,57.73l0,-115.459l-100,57.729Z" style="fill:#fff;fill-rule:nonzero;"/><path d="M750,2491.3l100,57.73l0,-115.459l-100,57.729Z" style="fill:#fff;fill-rule:nonzero;"/><path d="M1050.5,1625.27l0,0.011l-100,57.729l0,-115.469l100,57.729Z" style="fill:#fff;fill-rule:nonzero;"/><path d="M1050.5,1509.81l0,115.46l-100,-57.73l100,-57.73Z" style="fill:#fff;fill-rule:nonzero;"/><path d="M1050.5,1278.87l0,115.47l-100,-57.741l99.99,-57.729l0.01,0Z" style="fill:#fff;fill-rule:nonzero;"/><path d="M1050.5,1163.4l0,115.47l-0.01,0l-99.99,-57.731l0,-0.009l100,-57.73Z" style="fill:#fff;fill-rule:nonzero;"/><path d="M1050.5,1163.39l0,0.011l-100,57.729l0,-115.469l100,57.729Z" style="fill:#fff;fill-rule:nonzero;"/><path d="M1050.5,1047.93l0,115.46l-100,-57.73l100,-57.73Z" style="fill:#fff;fill-rule:nonzero;"/><path d="M1050.5,239.64l0,115.47l-0.01,0l-99.99,-57.73l0,-0.01l100,-57.73Z" style="fill:#fff;fill-rule:nonzero;"/><path d="M1050.5,8.7l0,115.47l-100,-57.74l100,-57.73Z" style="fill:#fff;fill-rule:nonzero;"/><path d="M950.5,990.19l100,57.739l-100,57.731l0,-115.47Z" style="fill:#fff;fill-rule:nonzero;"/><path d="M950.5,1452.07l100,57.739l-100,57.731l0,-115.47Z" style="fill:#fff;fill-rule:nonzero;"/><path d="M449.502,1625.29l-0,-115.472l99.998,57.734l-99.998,57.738Z" style="fill:#fff;fill-rule:nonzero;"/><path d="M250,1740.75l-0,-115.472l99.998,57.734l-99.998,57.738Z" style="fill:#fff;fill-rule:nonzero;"/><path d="M50.002,1856.22l-0,-115.472l99.998,57.734l-99.998,57.738Z" style="fill:#fff;fill-rule:nonzero;"/><path d="M50.002,1509.82l-0,-115.472l99.998,57.734l-99.998,57.738Z" style="fill:#fff;fill-rule:nonzero;"/><path d="M1050.5,8.7l-100,57.73l0,-115.47l100,57.74Z" style="fill:#fff;fill-rule:nonzero;"/><path d="M950.5,297.38l99.99,57.73l-99.99,57.73l0,-115.46Z" style="fill:#fff;fill-rule:nonzero;"/><path d="M950.5,1221.14l99.99,57.73l-99.99,57.73l0,-115.46Z" style="fill:#fff;fill-rule:nonzero;"/><path d="M950.5,1452.07l0,0.01l-99.99,57.729l-0.01,0l0,-115.469l100,57.73Z" style="fill:#fff;fill-rule:nonzero;"/><path d="M950.5,1336.6l0,115.471l-100,-57.731l0,-0.01l100,-57.73Z" style="fill:#fff;fill-rule:nonzero;"/><path d="M950.5,990.2l0,115.46l-99.99,-57.731l99.99,-57.729Z" style="fill:#fff;fill-rule:nonzero;"/><path d="M1550.5,990.2l0,115.46l-99.99,-57.731l99.99,-57.729Z" style="fill:#fff;fill-rule:nonzero;"/><path d="M1550.5,1105.66l-100,57.739l0,-115.469l100,57.73Z" style="fill:#fff;fill-rule:nonzero;"/><path d="M1550.5,1105.67l0,115.46l-99.99,-57.731l99.99,-57.729Z" style="fill:#fff;fill-rule:nonzero;"/><path d="M1550.51,1221.13l-100,57.739l0,-115.469l100,57.73Z" style="fill:#fff;fill-rule:nonzero;"/><path d="M1550.51,1221.14l0,115.46l-99.99,-57.731l99.99,-57.729Z" style="fill:#fff;fill-rule:nonzero;"/><path d="M1550,1336.6l-100,57.739l0,-115.469l100,57.73Z" style="fill:#fff;fill-rule:nonzero;"/><path d="M1550,1452.07l-100,57.739l0,-115.469l100,57.73Z" style="fill:#fff;fill-rule:nonzero;"/><path d="M1550,1336.61l0,115.46l-99.99,-57.731l99.99,-57.729Z" style="fill:#fff;fill-rule:nonzero;"/><path d="M1450,1509.8l-100,57.739l0,-115.469l100,57.73Z" style="fill:#fff;fill-rule:nonzero;"/><path d="M1450,1625.27l-100,57.739l0,-115.469l100,57.73Z" style="fill:#fff;fill-rule:nonzero;"/><path d="M1450,1509.81l0,115.46l-99.99,-57.731l99.99,-57.729Z" style="fill:#fff;fill-rule:nonzero;"/><path d="M1150.5,1683l100,57.739l0,-115.469l-100,57.73Z" style="fill:#fff;fill-rule:nonzero;"/><path d="M1349.51,1683l100,57.739l0,-115.469l-100,57.73Z" style="fill:#fff;fill-rule:nonzero;"/><path d="M1449.5,1740.74l-100,57.739l0,-115.469l100,57.73Z" style="fill:#fff;fill-rule:nonzero;"/><path d="M1449.5,1740.75l0,115.46l-99.99,-57.731l99.99,-57.729Z" style="fill:#fff;fill-rule:nonzero;"/><path d="M950.5,297.37l0,115.47l-100,-57.73l100,-57.74Z" style="fill:#fff;fill-rule:nonzero;"/><path d="M950.5,-49.04l0,115.47l-100,-57.73l0,-0.01l100,-57.73Z" style="fill:#fff;fill-rule:nonzero;"/><path d="M950.5,181.9l-100,57.74l0,-115.47l0.01,-0l99.99,57.73Z" style="fill:#fff;fill-rule:nonzero;"/><path d="M950.5,1336.6l-100,57.73l0,-115.459l100,57.729Z" style="fill:#fff;fill-rule:nonzero;"/><path d="M449.5,1625.29l0,115.46l-100,-57.73l100,-57.73Z" style="fill:#fff;fill-rule:nonzero;"/><path d="M649.5,1509.83l0,115.46l-100,-57.73l100,-57.73Z" style="fill:#fff;fill-rule:nonzero;"/><path d="M950.5,1913.95l0,115.47l-100,-57.73l0,-0.01l100,-57.73Z" style="fill:#fff;fill-rule:nonzero;"/><path d="M950.5,1913.95l-100,57.73l0,-115.459l100,57.729Z" style="fill:#fff;fill-rule:nonzero;"/><path d="M950.5,1798.48l-0,115.47l-100,-57.73l-0,-0.01l100,-57.73Z" style="fill:#fff;fill-rule:nonzero;"/><path d="M750,2144.89l-100,57.73l0,-115.459l100,57.729Z" style="fill:#fff;fill-rule:nonzero;"/><path d="M549.5,2144.89l0,115.47l100,-57.73l0,-0.01l-100,-57.73Z" style="fill:#fff;fill-rule:nonzero;"/><path d="M650,2087.16l-0,115.46l-100,-57.73l100,-57.73Z" style="fill:#fff;fill-rule:nonzero;"/><path d="M750,2029.42l-0,115.47l-100,-57.73l-0,-0.01l100,-57.73Z" style="fill:#fff;fill-rule:nonzero;"/><path d="M750.5,2491.3l-100,57.73l0,-115.459l100,57.729Z" style="fill:#fff;fill-rule:nonzero;"/><path d="M550,2491.3l0,115.47l100,-57.73l0,-0.01l-100,-57.73Z" style="fill:#fff;fill-rule:nonzero;"/><path d="M650.5,2433.57l-0,115.46l-100,-57.73l100,-57.73Z" style="fill:#fff;fill-rule:nonzero;"/><path d="M750.5,2375.83l-0,115.47l-100,-57.73l-0,-0.01l100,-57.73Z" style="fill:#fff;fill-rule:nonzero;"/><path d="M550,2491.28l-0,115.47l-100,-57.73l-0,-0.01l100,-57.73Z" style="fill:#fff;fill-rule:nonzero;"/><path d="M549.5,2260.36l-100,57.73l0,-115.459l100,57.729Z" style="fill:#fff;fill-rule:nonzero;"/><path d="M349,2260.36l0,115.47l100,-57.73l0,-0.01l-100,-57.73Z" style="fill:#fff;fill-rule:nonzero;"/><path d="M449.5,2202.63l-0,115.46l-100,-57.73l100,-57.73Z" style="fill:#fff;fill-rule:nonzero;"/><path d="M549.5,2144.89l-0,115.47l-100,-57.73l-0,-0.01l100,-57.73Z" style="fill:#fff;fill-rule:nonzero;"/><path d="M950.5,1798.48l-0,115.47l-100,-57.73l-0,-0.01l100,-57.73Z" style="fill:#fff;fill-rule:nonzero;"/><path d="M950.5,1798.48l-100,57.73l0,-115.459l100,57.729Z" style="fill:#fff;fill-rule:nonzero;"/><path d="M850.5,1740.75l-100,57.73l0,-115.459l100,57.729Z" style="fill:#fff;fill-rule:nonzero;"/><path d="M850.5,1740.75l-0,115.46l-100,-57.73l100,-57.73Z" style="fill:#fff;fill-rule:nonzero;"/><path d="M650,1740.75l0,115.47l100,-57.73l0,-0.01l-100,-57.73Z" style="fill:#fff;fill-rule:nonzero;"/><path d="M750.5,1683.02l-0,115.46l-100,-57.73l100,-57.73Z" style="fill:#fff;fill-rule:nonzero;"/><path d="M549.5,1798.48l0,115.47l100,-57.73l0,-0.01l-100,-57.73Z" style="fill:#fff;fill-rule:nonzero;"/><path d="M650,1740.75l0,115.46l-100,-57.73l100,-57.73Z" style="fill:#fff;fill-rule:nonzero;"/><path d="M449.5,1856.21l0,115.47l100,-57.73l0,-0.01l-100,-57.73Z" style="fill:#fff;fill-rule:nonzero;"/><path d="M550,1798.48l0,115.46l-100,-57.73l100,-57.73Z" style="fill:#fff;fill-rule:nonzero;"/><path d="M349.5,1913.94l0,115.47l100,-57.73l0,-0.01l-100,-57.73Z" style="fill:#fff;fill-rule:nonzero;"/><path d="M450,1856.21l0,115.46l-100,-57.73l100,-57.73Z" style="fill:#fff;fill-rule:nonzero;"/><path d="M850.5,1509.8l0,0.01l-100,57.74l0,-115.479l100,57.729Z" style="fill:#fff;fill-rule:nonzero;"/><path d="M850.5,1394.34l0,115.46l-100,-57.73l100,-57.73Z" style="fill:#fff;fill-rule:nonzero;"/><path d="M850.5,1394.33l0,0.01l-100,57.73l0,-115.47l100,57.73Z" style="fill:#fff;fill-rule:nonzero;"/><path d="M850.5,1278.87l0,115.46l-100,-57.731l100,-57.729Z" style="fill:#fff;fill-rule:nonzero;"/><path d="M850.5,1163.4l0,115.47l-100,-57.741l100,-57.729Z" style="fill:#fff;fill-rule:nonzero;"/><path d="M850.5,932.45l0,0.01l-100,57.73l0,-115.47l100,57.73Z" style="fill:#fff;fill-rule:nonzero;"/><path d="M850.5,124.16l0,0.01l-100,57.74l0,-115.48l100,57.73Z" style="fill:#fff;fill-rule:nonzero;"/><path d="M850.5,8.69l0,0.01l-100,57.73l0,-115.47l100,57.73Z" style="fill:#fff;fill-rule:nonzero;"/><path d="M850.5,239.64l-100,57.73l0,-115.46l100,57.73Z" style="fill:#fff;fill-rule:nonzero;"/><path d="M850.5,355.11l-100,57.73l0,-115.47l100,57.74Z" style="fill:#fff;fill-rule:nonzero;"/><path d="M850.5,1163.4l-100,57.729l0,-115.459l100,57.73Z" style="fill:#fff;fill-rule:nonzero;"/><path d="M750.5,1336.6l0,115.471l-100,-57.731l0,-0.01l100,-57.73Z" style="fill:#fff;fill-rule:nonzero;"/><path d="M750.5,1105.67l0,115.46l-100,-57.73l100,-57.73Z" style="fill:#fff;fill-rule:nonzero;"/><path d="M750.5,874.72l0,115.471l-100,-57.731l0,-0.01l100,-57.73Z" style="fill:#fff;fill-rule:nonzero;"/><path d="M750.5,-49.04l0,115.47l-100,-57.73l0,-0.01l100,-57.73Z" style="fill:#fff;fill-rule:nonzero;"/><path d="M650.5,124.17l100,57.74l-100,57.73l0,-115.47Z" style="fill:#fff;fill-rule:nonzero;"/><path d="M750.5,297.37l-100,57.74l0,-115.47l100,57.73Z" style="fill:#fff;fill-rule:nonzero;"/><path d="M750.5,759.25l-100,57.74l0,-115.47l100,57.73Z" style="fill:#fff;fill-rule:nonzero;"/><path d="M750.5,-49.04l-100,57.73l0,-115.46l100,57.73Z" style="fill:#fff;fill-rule:nonzero;"/><path d="M750.5,66.43l-100,57.73l0,-115.46l100,57.73Z" style="fill:#fff;fill-rule:nonzero;"/><path d="M750.5,412.84l-100,57.73l0,-115.46l100,57.73Z" style="fill:#fff;fill-rule:nonzero;"/><path d="M750.5,990.19l-100,57.729l0,-115.459l100,57.73Z" style="fill:#fff;fill-rule:nonzero;"/><path d="M250,1740.75l0,115.471l-0.01,0l-99.99,-57.731l0,-0.009l100,-57.731Z" style="fill:#fff;fill-rule:nonzero;"/><path d="M1250.5,1856.22l0,115.471l-0.01,-0l-99.99,-57.731l0,-0.009l100,-57.731Z" style="fill:#fff;fill-rule:nonzero;"/><path d="M650.5,932.46l0,115.47l-0.01,-0l-99.99,-57.73l0,-0.009l100,-57.731Z" style="fill:#fff;fill-rule:nonzero;"/><path d="M650.5,701.519l0,115.471l-100,-57.741l100,-57.73Z" style="fill:#fff;fill-rule:nonzero;"/><path d="M650.5,470.57l0,0.01l-100,57.73l0,-115.47l100,57.73Z" style="fill:#fff;fill-rule:nonzero;"/><path d="M650.5,8.7l0,115.47l-0.01,0l-99.99,-57.73l0,-0.01l100,-57.73Z" style="fill:#fff;fill-rule:nonzero;"/><path d="M650.5,8.69l0,0.01l-100,57.73l0,-115.47l100,57.73Z" style="fill:#fff;fill-rule:nonzero;"/><path d="M650.5,-106.77l0,115.46l-100,-57.73l100,-57.73Z" style="fill:#fff;fill-rule:nonzero;"/><path d="M550.5,297.37l100,57.74l-100,57.73l0,-115.47Z" style="fill:#fff;fill-rule:nonzero;"/><path d="M550.5,759.25l100,57.74l-100,57.73l0,-115.47Z" style="fill:#fff;fill-rule:nonzero;"/><path d="M650.5,239.64l-100,57.73l0,-115.47l100,57.74Z" style="fill:#fff;fill-rule:nonzero;"/><path d="M550.5,66.44l99.99,57.73l-99.99,57.73l0,-115.46Z" style="fill:#fff;fill-rule:nonzero;"/><path d="M550.5,528.32l99.99,57.729l-99.99,57.731l0,-115.46Z" style="fill:#fff;fill-rule:nonzero;"/><path d="M550.5,990.2l99.99,57.729l-99.99,57.731l0,-115.46Z" style="fill:#fff;fill-rule:nonzero;"/><path d="M550.5,990.19l0,115.47l-100,-57.731l100,-57.739Z" style="fill:#fff;fill-rule:nonzero;"/><path d="M550.5,759.26l0,115.46l-99.99,-57.73l99.99,-57.73Z" style="fill:#fff;fill-rule:nonzero;"/><path d="M550.5,759.25l0,0.01l-99.99,57.73l-0.01,0l0,-115.47l100,57.73Z" style="fill:#fff;fill-rule:nonzero;"/><path d="M550.5,528.309l0,115.471l-100,-57.731l100,-57.74Z" style="fill:#fff;fill-rule:nonzero;"/><path d="M550.5,66.43l0,115.47l-100,-57.73l100,-57.74Z" style="fill:#fff;fill-rule:nonzero;"/><path d="M550.5,-49.04l0,115.47l-100,-57.73l100,-57.74Z" style="fill:#fff;fill-rule:nonzero;"/><path d="M550.5,-49.04l-100,57.74l0,-115.47l0.01,0l99.99,57.73Z" style="fill:#fff;fill-rule:nonzero;"/><path d="M550.5,66.43l-100,57.74l0,-115.47l100,57.73Z" style="fill:#fff;fill-rule:nonzero;"/><path d="M550.5,990.19l-100,57.739l0,-115.469l100,57.73Z" style="fill:#fff;fill-rule:nonzero;"/><path d="M50,1856.23l0,115.46l-100,-57.731l100,-57.729Z" style="fill:#fff;fill-rule:nonzero;"/><path d="M50,1625.29l0,115.47l-100,-57.73l100,-57.74Z" style="fill:#fff;fill-rule:nonzero;"/><path d="M50,1394.34l0,115.46l-100,-57.73l100,-57.73Z" style="fill:#fff;fill-rule:nonzero;"/><path d="M550.5,1221.13l0,0.01l-100,57.74l0,-115.48l100,57.73Z" style="fill:#fff;fill-rule:nonzero;"/><path d="M450.5,932.46l0,115.47l-100,-57.74l100,-57.73Z" style="fill:#fff;fill-rule:nonzero;"/><path d="M450.5,701.519l0,115.461l-100,-57.731l100,-57.73Z" style="fill:#fff;fill-rule:nonzero;"/><path d="M450.5,239.63l0,0.01l-100,57.73l0,-115.47l100,57.73Z" style="fill:#fff;fill-rule:nonzero;"/><path d="M450.5,8.7l0,115.47l-100,-57.74l100,-57.73Z" style="fill:#fff;fill-rule:nonzero;"/><path d="M450.5,-106.77l0,115.47l-100,-57.73l100,-57.74Z" style="fill:#fff;fill-rule:nonzero;"/><path d="M450.5,8.7l-100,57.73l0,-115.46l100,57.73Z" style="fill:#fff;fill-rule:nonzero;"/><path d="M450.5,932.46l-100,57.73l0,-115.459l100,57.729Z" style="fill:#fff;fill-rule:nonzero;"/><path d="M550.5,1336.61l-100,57.73l0,-115.459l100,57.729Z" style="fill:#fff;fill-rule:nonzero;"/><path d="M250.5,2433.57l-100,57.729l0,-115.469l100,57.74Z" style="fill:#fff;fill-rule:nonzero;"/><path d="M150.5,2375.83l0,115.47l-100,-57.73l100,-57.74Z" style="fill:#fff;fill-rule:nonzero;"/><path d="M450.5,1278.88l0,115.46l-100,-57.731l100,-57.729Z" style="fill:#fff;fill-rule:nonzero;"/><path d="M450.5,1163.4l0,115.479l-100,-57.74l0,-0.01l100,-57.73Z" style="fill:#fff;fill-rule:nonzero;"/><path d="M350.5,874.73l0,115.46l-100,-57.731l100,-57.729Z" style="fill:#fff;fill-rule:nonzero;"/><path d="M350.5,643.78l0,115.47l-100,-57.731l0,-0.01l100,-57.729Z" style="fill:#fff;fill-rule:nonzero;"/><path d="M350.5,528.31l0,115.471l-100,-57.731l100,-57.74Z" style="fill:#fff;fill-rule:nonzero;"/><path d="M350.5,412.85l0,115.459l-100,-57.729l100,-57.73Z" style="fill:#fff;fill-rule:nonzero;"/><path d="M350.5,297.37l0,115.48l-100,-57.74l0,-0.01l100,-57.73Z" style="fill:#fff;fill-rule:nonzero;"/><path d="M350.5,181.9l0,115.47l-100,-57.73l0,-0.01l100,-57.73Z" style="fill:#fff;fill-rule:nonzero;"/><path d="M350.5,-49.03l0,115.46l-100,-57.73l100,-57.73Z" style="fill:#fff;fill-rule:nonzero;"/><path d="M150.5,2491.3l0,115.46l-100,-57.731l100,-57.729Z" style="fill:#fff;fill-rule:nonzero;"/><path d="M250.5,2549.03l-100,57.74l0,-115.47l100,57.73Z" style="fill:#fff;fill-rule:nonzero;"/><path d="M250.5,2433.57l0,115.46l-100,-57.731l100,-57.729Z" style="fill:#fff;fill-rule:nonzero;"/><path d="M150.5,2144.88l0,115.46l-100,-57.731l100,-57.729Z" style="fill:#fff;fill-rule:nonzero;"/><path d="M150.5,2029.41l0,115.46l-100,-57.731l100,-57.729Z" style="fill:#fff;fill-rule:nonzero;"/><path d="M250.5,2202.61l-100,57.74l0,-115.47l100,57.73Z" style="fill:#fff;fill-rule:nonzero;"/><path d="M50.5,2087.14l100,57.74l-100,57.73l0,-115.47Z" style="fill:#fff;fill-rule:nonzero;"/><path d="M250.5,2087.15l0,115.46l-100,-57.731l100,-57.729Z" style="fill:#fff;fill-rule:nonzero;"/><path d="M150.5,2029.41l100,57.74l-100,57.73l0,-115.47Z" style="fill:#fff;fill-rule:nonzero;"/><path d="M450.5,1394.34l-100,57.739l0,-115.469l100,57.73Z" style="fill:#fff;fill-rule:nonzero;"/><path d="M350.5,528.31l-100,57.74l0,-115.469l100,57.729Z" style="fill:#fff;fill-rule:nonzero;"/><path d="M250.5,355.11l100,57.74l-100,57.73l0,-115.47Z" style="fill:#fff;fill-rule:nonzero;"/><path d="M350.5,297.37l-100,57.73l0,-115.46l100,57.73Z" style="fill:#fff;fill-rule:nonzero;"/><path d="M350.5,643.78l-100,57.729l0,-115.459l100,57.73Z" style="fill:#fff;fill-rule:nonzero;"/><path d="M450.5,1163.4l-100,57.729l0,-115.459l100,57.729Z" style="fill:#fff;fill-rule:nonzero;"/><path d="M150.5,2491.3l-100,57.73l0,-115.459l100,57.729Z" style="fill:#fff;fill-rule:nonzero;"/><path d="M350.5,1336.61l0,115.47l-100,-57.74l100,-57.73Z" style="fill:#fff;fill-rule:nonzero;"/><path d="M350.5,1105.67l0,115.47l-0.01,-0l-99.99,-57.731l0,-0.009l100,-57.73Z" style="fill:#fff;fill-rule:nonzero;"/><path d="M350.5,1105.66l0,0.011l-100,57.729l0,-115.469l100,57.729Z" style="fill:#fff;fill-rule:nonzero;"/><path d="M150.5,66.43l100,57.74l-100,57.73l0,-115.47Z" style="fill:#fff;fill-rule:nonzero;"/><path d="M250.5,1394.34l100,57.739l-100,57.731l0,-115.47Z" style="fill:#fff;fill-rule:nonzero;"/><path d="M350.5,1336.61l0,0.01l-99.99,57.729l-0.01,0l0,-115.469l100,57.73Z" style="fill:#fff;fill-rule:nonzero;"/><path d="M350.5,1221.13l0,115.471l-100,-57.731l0,-0.01l100,-57.73Z" style="fill:#fff;fill-rule:nonzero;"/><path d="M550.5,1221.13l0,115.47l-100,-57.73l100,-57.74Z" style="fill:#fff;fill-rule:nonzero;"/><path d="M550.5,1221.13l0,115.47l100,-57.73l-100,-57.74Z" style="fill:#fff;fill-rule:nonzero;"/><path d="M150.5,528.32l0,115.46l-99.99,-57.731l99.99,-57.729Z" style="fill:#fff;fill-rule:nonzero;"/><path d="M150.5,528.31l0,0.011l-99.99,57.729l-0.01,-0l0,-115.469l100,57.729Z" style="fill:#fff;fill-rule:nonzero;"/><path d="M150.5,759.255l0,115.46l-99.99,-57.731l99.99,-57.729Z" style="fill:#fff;fill-rule:nonzero;"/><path d="M250.5,816.971l0,0.011l-99.99,57.729l-0.01,0l0,-115.469l100,57.729Z" style="fill:#fff;fill-rule:nonzero;"/><path d="M150.51,759.237l0,0.011l-99.99,57.729l-0.01,-0l0,-115.469l100,57.729Z" style="fill:#fff;fill-rule:nonzero;"/><path d="M150.48,990.21l0,115.46l-99.99,-57.731l99.99,-57.729Z" style="fill:#fff;fill-rule:nonzero;"/><path d="M150.49,990.191l0,0.011l-99.99,57.729l-0.01,0l0,-115.469l100,57.729Z" style="fill:#fff;fill-rule:nonzero;"/><path d="M150.49,1221.16l0,115.46l-99.99,-57.731l99.99,-57.729Z" style="fill:#fff;fill-rule:nonzero;"/><path d="M150.49,1452.08l0,115.46l-99.99,-57.731l99.99,-57.729Z" style="fill:#fff;fill-rule:nonzero;"/><path d="M150.5,1221.15l0,0.011l-99.99,57.729l-0.01,-0l0,-115.469l100,57.729Z" style="fill:#fff;fill-rule:nonzero;"/><path d="M-50,759.255l0,115.46l99.99,-57.731l-99.99,-57.729Z" style="fill:#fff;fill-rule:nonzero;"/><path d="M-50.01,759.237l0,0.011l99.99,57.729l0.01,-0l0,-115.469l-100,57.729Z" style="fill:#fff;fill-rule:nonzero;"/><path d="M-49.98,990.21l-0,115.46l99.99,-57.731l-99.99,-57.729Z" style="fill:#fff;fill-rule:nonzero;"/><path d="M-49.99,990.191l-0,0.011l99.99,57.729l0.01,0l-0,-115.469l-100,57.729Z" style="fill:#fff;fill-rule:nonzero;"/><path d="M-49.99,1221.16l-0,115.46l99.99,-57.731l-99.99,-57.729Z" style="fill:#fff;fill-rule:nonzero;"/><path d="M-49.988,1452.08l-0,115.46l99.99,-57.731l-99.99,-57.729Z" style="fill:#fff;fill-rule:nonzero;"/><path d="M-50,1221.15l0,0.011l99.99,57.729l0.01,-0l-0,-115.469l-100,57.729Z" style="fill:#fff;fill-rule:nonzero;"/><path d="M150.5,412.84l0,115.47l-100,-57.73l0,-0.01l100,-57.73Z" style="fill:#fff;fill-rule:nonzero;"/><path d="M150.5,297.37l0,115.47l-100,-57.73l100,-57.74Z" style="fill:#fff;fill-rule:nonzero;"/><path d="M150.5,181.9l0,115.47l-100,-57.73l100,-57.74Z" style="fill:#fff;fill-rule:nonzero;"/><path d="M150.5,66.44l0,115.46l-99.99,-57.73l99.99,-57.73Z" style="fill:#fff;fill-rule:nonzero;"/><path d="M150.5,181.9l-100,57.74l-0,-115.47l0.01,-0l99.99,57.73Z" style="fill:#fff;fill-rule:nonzero;"/><path d="M150.5,297.37l-100,57.74l0,-115.47l100,57.73Z" style="fill:#fff;fill-rule:nonzero;"/><path d="M150.5,412.84l-100,57.73l0,-115.46l100,57.73Z" style="fill:#fff;fill-rule:nonzero;"/><path d="M350.5,1221.13l-100,57.74l0,-115.469l100,57.729Z" style="fill:#fff;fill-rule:nonzero;"/><path d="M450.5,1278.87l-100,57.73l0,-115.459l100,57.729Z" style="fill:#fff;fill-rule:nonzero;"/></g><defs><radialGradient id="_Radial1" cx="0" cy="0" r="1" gradientUnits="userSpaceOnUse" gradientTransform="matrix(1030.78,0,0,1030.78,750,1250)"><stop offset="0" style="stop-color:#333;stop-opacity:1"/><stop offset="1" style="stop-color:#000;stop-opacity:1"/></radialGradient></defs></svg>