<?xml version="1.0" encoding="UTF-8" standalone="no"?>
<!DOCTYPE svg PUBLIC "-//W3C//DTD SVG 1.1//EN" "http://www.w3.org/Graphics/SVG/1.1/DTD/svg11.dtd">
<svg width="100%" height="100%" viewBox="0 0 256 256" version="1.1" xmlns="http://www.w3.org/2000/svg" xmlns:xlink="http://www.w3.org/1999/xlink" xml:space="preserve" xmlns:serif="http://www.serif.com/" style="fill-rule:evenodd;clip-rule:evenodd;stroke-linejoin:round;stroke-miterlimit:2;">
    <path d="M235.996,236C235.996,224.962 227.034,216 215.996,216L40.004,216C28.966,216 20.004,224.962 20.004,236C20.004,247.038 28.966,256 40.004,256L215.996,256C227.034,256 235.996,247.038 235.996,236ZM103.002,136.282L103.002,25C103.002,11.202 114.204,0 128.002,0C141.8,0 153.002,11.202 153.002,25L153.002,136.278L187.714,101.567C195.519,93.761 208.193,93.761 215.998,101.567C223.803,109.372 223.803,122.046 215.998,129.851L142.703,203.146C138.657,207.192 133.304,209.14 128,208.973C122.696,209.14 117.343,207.192 113.297,203.146L40.002,129.851C32.197,122.046 32.197,109.372 40.002,101.567C47.807,93.761 60.481,93.761 68.286,101.567L103.002,136.282Z"/>
</svg>
