<?xml version="1.0" encoding="UTF-8" standalone="no"?>
<!DOCTYPE svg PUBLIC "-//W3C//DTD SVG 1.1//EN" "http://www.w3.org/Graphics/SVG/1.1/DTD/svg11.dtd">
<svg width="100%" height="100%" viewBox="0 0 16 16" version="1.1" xmlns="http://www.w3.org/2000/svg" xmlns:xlink="http://www.w3.org/1999/xlink" xml:space="preserve" xmlns:serif="http://www.serif.com/" style="fill-rule:evenodd;clip-rule:evenodd;stroke-linecap:round;stroke-linejoin:round;stroke-miterlimit:1.5;">
    <g transform="matrix(-1,0,0,1,16,0)">
        <path d="M16,8C16,3.585 12.415,0 8,0C3.585,0 0,3.585 0,8C0,12.415 3.585,16 8,16C12.415,16 16,12.415 16,8Z" style="fill:rgb(0,93,255);"/>
    </g>
    <g transform="matrix(-0.75,0,0,0.999836,14.5,2.00131)">
        <path d="M3.333,10L10,10C11.333,10 15.333,9 15.333,7" style="fill:none;stroke:white;stroke-width:1.7px;"/>
    </g>
    <g transform="matrix(-1,0,0,1,16,2)">
        <ellipse cx="5" cy="4" rx="1" ry="3" style="fill:white;"/>
    </g>
    <g transform="matrix(-2,0,0,1,29,2)">
        <ellipse cx="11.5" cy="4" rx="0.5" ry="3" style="fill:white;"/>
    </g>
</svg>
