<?xml version="1.0" encoding="UTF-8" standalone="no"?>
<!DOCTYPE svg PUBLIC "-//W3C//DTD SVG 1.1//EN" "http://www.w3.org/Graphics/SVG/1.1/DTD/svg11.dtd">
<svg width="100%" height="100%" viewBox="0 0 256 256" version="1.1" xmlns="http://www.w3.org/2000/svg" xmlns:xlink="http://www.w3.org/1999/xlink" xml:space="preserve" xmlns:serif="http://www.serif.com/" style="fill-rule:evenodd;clip-rule:evenodd;stroke-linejoin:round;stroke-miterlimit:2;">
    <g transform="matrix(-2.62202,0,0,1,544.763,0)">
        <path d="M207.764,128C207.764,116.962 204.346,108 200.137,108L130.777,108C126.567,108 123.149,116.962 123.149,128C123.149,139.038 126.567,148 130.777,148L200.137,148C204.346,148 207.764,139.038 207.764,128Z"/>
    </g>
    <g transform="matrix(-1.61069,-1.61069,-0.707107,0.707107,539.011,249.992)">
        <path d="M207.764,128C207.764,116.962 203.83,108 198.984,108L131.93,108C127.084,108 123.149,116.962 123.149,128C123.149,139.038 127.084,148 131.93,148L198.984,148C203.83,148 207.764,139.038 207.764,128Z"/>
    </g>
    <g transform="matrix(-1.61069,1.61069,0.707107,0.707107,357.992,-175.011)">
        <path d="M207.764,128C207.764,116.962 203.83,108 198.984,108L131.93,108C127.084,108 123.149,116.962 123.149,128C123.149,139.038 127.084,148 131.93,148L198.984,148C203.83,148 207.764,139.038 207.764,128Z"/>
    </g>
</svg>
